<svg
	style="width: 1.5rem; height: 1.5rem"
	width="24"
	height="24"
	viewBox="0 0 24 24"
	fill="none"
	xmlns="http://www.w3.org/2000/svg"
>
	<path
		d="M21.0008 20.7959L15.7553 15.5504C17.0157 14.0372 17.6443 12.0963 17.5102 10.1314C17.376 8.16658 16.4895 6.32908 15.0351 5.00119C13.5807 3.67329 11.6704 2.95724 9.70144 3.00198C7.73252 3.04672 5.85665 3.84881 4.46406 5.24141C3.07147 6.634 2.26938 8.50987 2.22463 10.4788C2.17989 12.4477 2.89595 14.3581 4.22384 15.8125C5.55174 17.2669 7.38924 18.1534 9.35409 18.2875C11.3189 18.4216 13.2599 17.7931 14.7731 16.5326L20.0186 21.7781L21.0008 20.7959ZM3.63639 10.6649C3.63639 9.42855 4.00302 8.21995 4.68991 7.19195C5.3768 6.16395 6.3531 5.36272 7.49535 4.88958C8.63761 4.41644 9.89451 4.29265 11.1071 4.53385C12.3197 4.77505 13.4336 5.37042 14.3078 6.24467C15.1821 7.11891 15.7774 8.23276 16.0187 9.44538C16.2599 10.658 16.1361 11.9149 15.6629 13.0571C15.1898 14.1994 14.3886 15.1757 13.3606 15.8626C12.3325 16.5495 11.1239 16.9161 9.88758 16.9161C8.23022 16.9143 6.64128 16.2551 5.46935 15.0831C4.29743 13.9112 3.63823 12.3223 3.63639 10.6649Z"
		fill="var(--color-text-secondary)"
	/>
</svg>
