<svg width="32" height="41" viewBox="0 0 32 41" fill="none" xmlns="http://www.w3.org/2000/svg">
	<path
		d="M8.67988 8.40858C8.76643 6.49022 9.27559 4.79762 10.2344 3.61748C11.1416 2.50083 12.5909 1.66667 15 1.66667C17.3348 1.66667 18.7904 2.55693 19.7282 3.74787C20.7164 5.00294 21.2238 6.72328 21.3175 8.42572L22.9817 8.33409L21.3175 8.42573C21.3833 9.61966 22.3574 10.6667 23.6667 10.6667H29.3334C29.8857 10.6667 30.3334 11.1144 30.3334 11.6667V16.3333C30.3334 16.7807 29.9338 17.3875 29.0086 17.5796C27.7685 17.837 26.3135 18.3902 25.1695 19.6216C23.9993 20.8811 23.3334 22.6564 23.3334 25C23.3334 27.3436 23.9993 29.1189 25.1695 30.3784C26.3135 31.6098 27.7685 32.163 29.0086 32.4204C29.9338 32.6124 30.3334 33.2193 30.3334 33.6667V38.3333C30.3334 38.8856 29.8857 39.3333 29.3334 39.3333H2.66667C2.11438 39.3333 1.66667 38.8856 1.66667 38.3333V11.6667C1.66667 11.1144 2.11438 10.6667 2.66667 10.6667H6.33334C7.64108 10.6667 8.62532 9.61771 8.67988 8.40858Z"
		fill="#1ABCFE"
		stroke="#01A3E5"
		stroke-width="3.33334"
	/>
</svg>
